<svg version="1.1" id="Layer_1" xmlns="http://www.w3.org/2000/svg"
                                         xmlns:xlink="http://www.w3.org/1999/xlink" x="0px" y="0px"
                                         width="320px" height="281.6px" viewBox="0 0 320 281.6"
                                         style="enable-background:new 0 0 320 281.6;" xml:space="preserve">
<style type="text/css">
    .st0 {
        fill: #A8ADC1;
    }

    .st1 {
        clip-path: url(#SVGID_2_);
        fill: #09152C;
    }

    .st2 {
        clip-path: url(#SVGID_4_);
        fill: #FFFFFF;
    }

    .st3 {
        fill: #FFFFFF;
    }

    .st4 {
        clip-path: url(#SVGID_6_);
        fill: #FFFFFF;
    }

    .st5 {
        clip-path: url(#SVGID_8_);
        fill: #FFFFFF;
    }

    .st6 {
        fill: #09152C;
    }

    .st7 {
        fill: #0B162D;
    }
</style>
                                        <path class="st0" d="M0,0v281.6h320V0H0z M152.3,148.8c0,18.3-14.8,33.1-33.1,33.1V49.5c0-18.3,14.8-33.1,33.1-33.1V148.8z
	 M189.5,182c-18.3,0-33.1-14.8-33.1-33.1v-33.1c18.3,0,33.1,14.8,33.1,33.1V182z M189.5,78.4c0,18.3-14.8,33.1-33.1,33.1V78.4
	c0-18.3,14.8-33.1,33.1-33.1V78.4z"/>
                                        <g>
                                            <path class="st3" d="M292.3,234c0.3-0.7,0.7-1.2,1.2-1.7c0.5-0.5,1.1-0.9,1.7-1.1c0.7-0.3,1.4-0.4,2.1-0.4s1.5,0.1,2.1,0.4
		c0.7,0.3,1.2,0.7,1.7,1.1c0.5,0.5,0.9,1.1,1.2,1.7c0.3,0.7,0.4,1.4,0.4,2.1c0,0.8-0.1,1.5-0.4,2.2c-0.3,0.7-0.7,1.2-1.2,1.7
		c-0.5,0.5-1.1,0.9-1.7,1.1c-0.7,0.3-1.4,0.4-2.1,0.4s-1.5-0.1-2.1-0.4c-0.7-0.3-1.2-0.7-1.7-1.1c-0.5-0.5-0.9-1.1-1.2-1.7
		c-0.3-0.7-0.4-1.4-0.4-2.2C291.9,235.3,292,234.6,292.3,234 M293.2,238c0.2,0.6,0.5,1.1,0.9,1.5c0.4,0.4,0.9,0.7,1.4,1
		c0.5,0.2,1.1,0.4,1.8,0.4c0.6,0,1.2-0.1,1.8-0.4c0.5-0.2,1-0.6,1.4-1c0.4-0.4,0.7-0.9,0.9-1.5c0.2-0.6,0.3-1.2,0.3-1.9
		c0-0.7-0.1-1.3-0.3-1.8c-0.2-0.6-0.5-1.1-0.9-1.5c-0.4-0.4-0.9-0.7-1.4-1c-0.5-0.2-1.1-0.4-1.8-0.4c-0.6,0-1.2,0.1-1.8,0.4
		c-0.6,0.2-1,0.6-1.4,1c-0.4,0.4-0.7,0.9-0.9,1.5c-0.2,0.6-0.3,1.2-0.3,1.8C292.9,236.8,293,237.4,293.2,238 M297.7,232.9
		c0.8,0,1.3,0.2,1.7,0.5c0.4,0.3,0.5,0.8,0.5,1.4c0,0.6-0.2,1-0.5,1.3c-0.3,0.3-0.7,0.4-1.2,0.5l1.8,2.8H299l-1.7-2.7h-1.1v2.7h-1
		v-6.4H297.7z M297.3,235.8c0.2,0,0.4,0,0.6,0c0.2,0,0.4-0.1,0.5-0.1c0.2-0.1,0.3-0.2,0.4-0.3c0.1-0.1,0.1-0.3,0.1-0.6
		c0-0.2,0-0.4-0.1-0.5c-0.1-0.1-0.2-0.2-0.3-0.3c-0.1-0.1-0.3-0.1-0.5-0.1c-0.2,0-0.3,0-0.5,0h-1.3v2H297.3z"/>
                                            <polygon class="st3" points="17.1,216.8 17.1,265.3 22.6,265.3 22.6,254.6 28.9,248.5 40.2,265.3 46.8,265.3 32.9,244.6
		45.6,232.3 37.6,232.3 22.6,247.1 22.6,216.8 	"/>
                                            <path class="st3" d="M120.7,231.4c-4.7,0-8.3,2.2-10.3,5.6c-2-3.5-5.5-5.6-10.2-5.6c-3.6,0-6.7,1.7-8.8,4.4v-3.6h-5.3v33h5.4v-20.2
		c0-4.9,3.3-8.6,7.8-8.6c4.9,0,7.4,3.1,7.4,8.3v20.6h5.4v-20.2c0-4.9,3.3-8.6,7.7-8.6c5.1,0,7.5,3.1,7.5,8.3v20.6h5.4v-20.4
		C132.9,236.6,128.3,231.4,120.7,231.4"/>
                                            <path class="st3" d="M165.7,260.3c-6.1,0-11.1-5.4-11.1-12.2c0-6.9,5-12.4,11.1-12.4c6.1,0,11.1,5.6,11.1,12.4
		C176.8,254.8,171.8,260.3,165.7,260.3 M165.7,230.7c-9.3,0-16.6,7.8-16.6,17.4c0,9.5,7.2,17.2,16.6,17.2c9.4,0,16.6-7.7,16.6-17.2
		C182.2,238.5,175.1,230.7,165.7,230.7"/>
                                            <path class="st3" d="M213.2,231.4c-4,0-7.4,1.7-9.6,4.4v-3.6h-5.3v33h5.4v-20.2c0-4.9,3.6-8.6,8.6-8.6c5.2,0,8.1,3.7,8.1,8.8v20
		h5.4v-19.8C225.9,237.2,221.3,231.4,213.2,231.4"/>
                                            <path class="st3" d="M258.6,260.3c-6.1,0-11.1-5.4-11.1-12.2c0-6.9,5-12.4,11.1-12.4c6.1,0,11.1,5.6,11.1,12.4
		C269.8,254.8,264.8,260.3,258.6,260.3 M258.6,230.7c-9.3,0-16.6,7.8-16.6,17.4c0,9.5,7.2,17.2,16.6,17.2c9.4,0,16.6-7.7,16.6-17.2
		C275.2,238.5,268,230.7,258.6,230.7"/>
                                            <rect x="63.8" y="232.3" class="st3" width="5.4" height="33"/>
                                            <path class="st3"
                                                  d="M66.5,216.8c-2,0-3.6,1.6-3.6,3.6c0,2,1.6,3.6,3.6,3.6c2,0,3.6-1.6,3.6-3.6C70.1,218.4,68.5,216.8,66.5,216.8"
                                            />
                                        </g>
</svg>
