<svg id="Layer_1" data-name="Layer 1" xmlns="http://www.w3.org/2000/svg" viewBox="0 0 113.9 21.45"><defs><style>.cls-1{fill:#f0fdff;}</style></defs><title>Kimono, Logotype</title><path class="cls-1" d="M153.82,148.29a7,7,0,1,0-7,7,7,7,0,0,0,7-7" transform="translate(-49.14 -133.78)"/><path class="cls-1" d="M131.23,155.24h2.23V147c0-3.4-1.91-5.78-5.25-5.78a5,5,0,0,0-4,1.83v-1.49h-2.17v13.66h2.25v-8.36a3.48,3.48,0,0,1,3.58-3.57c2.18,0,3.34,1.53,3.34,3.63Z" transform="translate(-49.14 -133.78)"/><path class="cls-1" d="M115.69,148.29a7,7,0,1,0-7,7,7,7,0,0,0,7-7" transform="translate(-49.14 -133.78)"/><path class="cls-1" d="M93.07,155.24h2.26v-8.46c0-3.4-1.91-5.54-5.07-5.54A4.8,4.8,0,0,0,86,143.57a4.62,4.62,0,0,0-4.21-2.33,4.42,4.42,0,0,0-3.63,1.83v-1.49H76v13.66h2.25v-8.36a3.33,3.33,0,0,1,3.24-3.57c2,0,3.07,1.29,3.07,3.41v8.52h2.23v-8.36A3.31,3.31,0,0,1,90,143.31c2.1,0,3.1,1.29,3.1,3.41Z" transform="translate(-49.14 -133.78)"/><path class="cls-1" d="M69.9,135.24a1.45,1.45,0,1,0-1.45,1.45,1.46,1.46,0,0,0,1.45-1.45" transform="translate(-49.14 -133.78)"/><polygon class="cls-1" points="6.51 12.94 11.77 7.83 8.47 7.83 2.25 13.94 2.25 0 0 0 0 21.45 2.25 21.45 2.25 17.06 4.87 14.52 9.52 21.45 12.25 21.45 6.51 12.94"/><rect class="cls-1" x="18.16" y="7.45" width="2.31" height="14"/><path class="cls-1" d="M160.3,142.09a1.45,1.45,0,0,1,2.32-.45,1.37,1.37,0,0,1,.3.45,1.3,1.3,0,0,1,.12.55,1.49,1.49,0,0,1-.42,1,1.41,1.41,0,0,1-.46.3,1.41,1.41,0,0,1-1.09,0,1.26,1.26,0,0,1-.46-.3,1.44,1.44,0,0,1-.31-.45,1.55,1.55,0,0,1-.11-.56,1.46,1.46,0,0,1,.11-.55m.24,1a1.33,1.33,0,0,0,.24.39,1.21,1.21,0,0,0,.84.35,1.06,1.06,0,0,0,.46-.1,1.34,1.34,0,0,0,.37-.25,1,1,0,0,0,.24-.39,1.15,1.15,0,0,0,.1-.48,1.12,1.12,0,0,0-.1-.48,1.14,1.14,0,0,0-.61-.63,1.05,1.05,0,0,0-.46-.09.9.9,0,0,0-.46.09,1.19,1.19,0,0,0-.38.25,1.17,1.17,0,0,0-.24.38,1.28,1.28,0,0,0-.09.48,1.32,1.32,0,0,0,.09.48m1.17-1.31a.66.66,0,0,1,.43.12.44.44,0,0,1,.15.36.42.42,0,0,1-.13.33.56.56,0,0,1-.31.12l.48.73h-.28l-.45-.71h-.27v.71h-.26v-1.66Zm-.12.74h.17a.35.35,0,0,0,.14,0,.24.24,0,0,0,.09-.08.29.29,0,0,0,0-.16.31.31,0,0,0,0-.13.24.24,0,0,0-.09-.08.35.35,0,0,0-.11,0h-.48v.52Z" transform="translate(-49.14 -133.78)"/></svg>
